<svg width="130" height="130" viewBox="0 0 130 130" fill="none" xmlns="http://www.w3.org/2000/svg">
<rect y="130" width="65" height="65" transform="rotate(-90 0 130)" fill="#1E1E1E"/>
<rect y="130" width="32.5" height="65" transform="rotate(-90 0 130)" fill="white"/>
<rect y="130" width="32.5" height="65" transform="rotate(-90 0 130)" fill="white"/>
<rect width="65" height="65" transform="matrix(0 -1 -1 0 130 130)" fill="white"/>
<path d="M130 130C130 121.464 128.319 113.012 125.052 105.126C121.786 97.2394 116.998 90.0739 110.962 84.0381C104.926 78.0022 97.7606 73.2144 89.8744 69.9478C81.9883 66.6813 73.5359 65 65 65L65 130H130Z" fill="#1E1E1E"/>
<rect x="65" width="65" height="65" transform="rotate(90 65 0)" fill="#1E1E1E"/>
<path d="M65 2.38419e-06C65 8.53592 63.3187 16.9883 60.0522 24.8744C56.7856 32.7606 51.9978 39.9261 45.9619 45.9619C39.9261 51.9978 32.7606 56.7856 24.8744 60.0522C16.9883 63.3187 8.53592 65 0 65L4.95911e-06 2.38419e-06H65Z" fill="white"/>
<rect width="65" height="65" transform="matrix(0 1 1 0 65 0)" fill="#1E1E1E"/>
<circle cx="70.2016" cy="5.19766" r="0.975" fill="white"/>
<circle cx="77.0297" cy="5.19766" r="0.975" fill="white"/>
<circle cx="83.85" cy="5.19766" r="0.975" fill="white"/>
<circle cx="90.6781" cy="5.19766" r="0.975" fill="white"/>
<circle cx="97.4984" cy="5.19766" r="0.975" fill="white"/>
<circle cx="104.327" cy="5.19766" r="0.975" fill="white"/>
<circle cx="111.155" cy="5.19766" r="0.975" fill="white"/>
<circle cx="117.975" cy="5.19766" r="0.975" fill="white"/>
<circle cx="124.803" cy="5.19766" r="0.975" fill="white"/>
<circle cx="70.2016" cy="12.0219" r="0.975" fill="white"/>
<circle cx="77.0297" cy="12.0219" r="0.975" fill="white"/>
<circle cx="83.85" cy="12.0219" r="0.975" fill="white"/>
<circle cx="90.6781" cy="12.0219" r="0.975" fill="white"/>
<circle cx="97.4984" cy="12.0219" r="0.975" fill="white"/>
<circle cx="104.327" cy="12.0219" r="0.975" fill="white"/>
<circle cx="111.155" cy="12.0219" r="0.975" fill="white"/>
<circle cx="117.975" cy="12.0219" r="0.975" fill="white"/>
<circle cx="124.803" cy="12.0219" r="0.975" fill="white"/>
<circle cx="70.2016" cy="18.8461" r="0.975" fill="white"/>
<circle cx="77.0297" cy="18.8461" r="0.975" fill="white"/>
<circle cx="83.85" cy="18.8461" r="0.975" fill="white"/>
<circle cx="90.6781" cy="18.8461" r="0.975" fill="white"/>
<circle cx="97.4984" cy="18.8461" r="0.975" fill="white"/>
<circle cx="104.327" cy="18.8461" r="0.975" fill="white"/>
<circle cx="111.155" cy="18.8461" r="0.975" fill="white"/>
<circle cx="117.975" cy="18.8461" r="0.975" fill="white"/>
<circle cx="124.803" cy="18.8461" r="0.975" fill="white"/>
<circle cx="70.2016" cy="25.6742" r="0.975" fill="white"/>
<circle cx="77.0297" cy="25.6742" r="0.975" fill="white"/>
<circle cx="83.85" cy="25.6742" r="0.975" fill="white"/>
<circle cx="90.6781" cy="25.6742" r="0.975" fill="white"/>
<circle cx="97.4984" cy="25.6742" r="0.975" fill="white"/>
<circle cx="104.327" cy="25.6742" r="0.975" fill="white"/>
<circle cx="111.155" cy="25.6742" r="0.975" fill="white"/>
<circle cx="117.975" cy="25.6742" r="0.975" fill="white"/>
<circle cx="124.803" cy="25.6742" r="0.975" fill="white"/>
<circle cx="70.2016" cy="32.4984" r="0.975" fill="white"/>
<circle cx="77.0297" cy="32.4984" r="0.975" fill="white"/>
<circle cx="83.85" cy="32.4984" r="0.975" fill="white"/>
<circle cx="90.6781" cy="32.4984" r="0.975" fill="white"/>
<circle cx="97.4984" cy="32.4984" r="0.975" fill="white"/>
<circle cx="104.327" cy="32.4984" r="0.975" fill="white"/>
<circle cx="111.155" cy="32.4984" r="0.975" fill="white"/>
<circle cx="117.975" cy="32.4984" r="0.975" fill="white"/>
<circle cx="124.803" cy="32.4984" r="0.975" fill="white"/>
<circle cx="70.2016" cy="39.3227" r="0.975" fill="white"/>
<circle cx="77.0297" cy="39.3227" r="0.975" fill="white"/>
<circle cx="83.85" cy="39.3227" r="0.975" fill="white"/>
<circle cx="90.6781" cy="39.3227" r="0.975" fill="white"/>
<circle cx="97.4984" cy="39.3227" r="0.975" fill="white"/>
<circle cx="104.327" cy="39.3227" r="0.975" fill="white"/>
<circle cx="111.155" cy="39.3227" r="0.975" fill="white"/>
<circle cx="117.975" cy="39.3227" r="0.975" fill="white"/>
<circle cx="124.803" cy="39.3227" r="0.975" fill="white"/>
<circle cx="70.2016" cy="46.1469" r="0.975" fill="white"/>
<circle cx="77.0297" cy="46.1469" r="0.975" fill="white"/>
<circle cx="83.85" cy="46.1469" r="0.975" fill="white"/>
<circle cx="90.6781" cy="46.1469" r="0.975" fill="white"/>
<circle cx="97.4984" cy="46.1469" r="0.975" fill="white"/>
<circle cx="104.327" cy="46.1469" r="0.975" fill="white"/>
<circle cx="111.155" cy="46.1469" r="0.975" fill="white"/>
<circle cx="117.975" cy="46.1469" r="0.975" fill="white"/>
<circle cx="124.803" cy="46.1469" r="0.975" fill="white"/>
<circle cx="70.2016" cy="52.9711" r="0.975" fill="white"/>
<circle cx="77.0297" cy="52.9711" r="0.975" fill="white"/>
<circle cx="83.85" cy="52.9711" r="0.975" fill="white"/>
<circle cx="90.6781" cy="52.9711" r="0.975" fill="white"/>
<circle cx="97.4984" cy="52.9711" r="0.975" fill="white"/>
<circle cx="104.327" cy="52.9711" r="0.975" fill="white"/>
<circle cx="111.155" cy="52.9711" r="0.975" fill="white"/>
<circle cx="117.975" cy="52.9711" r="0.975" fill="white"/>
<circle cx="124.803" cy="52.9711" r="0.975" fill="white"/>
<circle cx="70.2016" cy="59.7992" r="0.975" fill="white"/>
<circle cx="77.0297" cy="59.7992" r="0.975" fill="white"/>
<circle cx="83.85" cy="59.7992" r="0.975" fill="white"/>
<circle cx="90.6781" cy="59.7992" r="0.975" fill="white"/>
<circle cx="97.4984" cy="59.7992" r="0.975" fill="white"/>
<circle cx="104.327" cy="59.7992" r="0.975" fill="white"/>
<circle cx="111.155" cy="59.7992" r="0.975" fill="white"/>
<circle cx="117.975" cy="59.7992" r="0.975" fill="white"/>
<circle cx="124.803" cy="59.7992" r="0.975" fill="white"/>
</svg>
