<svg width="122" height="121" viewBox="0 0 122 121" fill="none" xmlns="http://www.w3.org/2000/svg">
<rect x="65" width="65" height="65" transform="rotate(90 65 0)" fill="#1E1E1E"/>
<circle cx="24.375" cy="24.375" r="24.375" transform="matrix(1 0 0 -1 8.125 56.875)" fill="white"/>
<rect width="65" height="65" transform="matrix(0 -1 -1 0 65 130)" fill="white"/>
<path d="M0 130V65L65 130H0Z" fill="#1E1E1E"/>
<rect x="65" y="130" width="65" height="65" transform="rotate(-90 65 130)" fill="#1E1E1E"/>
<path fill-rule="evenodd" clip-rule="evenodd" d="M123.096 65H127.691L65 127.691V123.096L123.096 65ZM71.8828 130H67.2876L130 67.2876V71.8828L71.8828 130ZM76.479 130H81.0781L130 81.0781V76.479L76.479 130ZM90.2695 130H85.6743L130 85.6743V90.2695L90.2695 130ZM94.8657 130H99.457L130 99.457V94.8657L94.8657 130ZM108.648 130H104.053L130 104.053V108.648L108.648 130ZM113.245 130H117.84L130 117.84V113.245L113.245 130ZM127.043 130H122.436L130 122.436V127.043L127.043 130ZM118.5 65H113.901L65 113.901V118.5L118.5 65ZM104.709 65H109.305L65 109.305V104.709L104.709 65ZM100.113 65H95.522L65 95.522V100.113L100.113 65ZM86.3306 65H90.9258L65 90.9258V86.3306L86.3306 65ZM81.7344 65H77.1313L65 77.1313V81.7344L81.7344 65ZM67.9438 65H72.5352L65 72.5352V67.9438L67.9438 65Z" fill="white"/>
<rect width="65" height="65" transform="matrix(0 -1 -1 0 130 65)" fill="white"/>
<rect width="16.25" height="16.25" transform="matrix(-0.707107 0.707107 0.707107 0.707107 97.5 21.125)" fill="#1E1E1E"/>
</svg>
