<svg width="130" height="130" viewBox="0 0 130 130" fill="none" xmlns="http://www.w3.org/2000/svg">
<rect width="65" height="65" fill="#F0F0F0"/>
<rect width="32.5" height="65" fill="#1E1E1E"/>
<rect width="32.5" height="65" fill="#1E1E1E"/>
<rect x="65" width="65" height="65" fill="#1E1E1E"/>
<path d="M65 -3.17812e-05C73.5359 -3.17812e-05 81.9882 1.68124 89.8744 4.9478C97.7606 8.21436 104.926 13.0022 110.962 19.038C116.998 25.0738 121.786 32.2394 125.052 40.1256C128.319 48.0117 130 56.4641 130 65L65 65L65 -3.17812e-05Z" fill="#1E1E1E"/>
<rect x="65" y="130" width="65" height="65" transform="rotate(-90 65 130)" fill="#1E1E1E"/>
<path fill-rule="evenodd" clip-rule="evenodd" d="M123.104 65H127.691L65 127.691V123.104L123.104 65ZM71.8828 130H67.2876L130 67.2876V71.8828L71.8828 130ZM76.479 130H81.082L130 81.082V76.479L76.479 130ZM90.2695 130H85.6782L130 85.6782V90.2695L90.2695 130ZM94.8657 130H99.4649L130 99.4649V94.8657L94.8657 130ZM108.652 130H104.061L130 104.061V108.652L108.652 130ZM113.249 130H117.848L130 117.848V113.249L113.249 130ZM127.043 130H122.444L130 122.444V127.043L127.043 130ZM118.508 65H113.901L65 113.901V118.508L118.508 65ZM104.713 65H109.305L65 109.305V104.713L104.713 65ZM100.117 65H95.5259L65 95.5259V100.117L100.117 65ZM86.3267 65H90.9297L65 90.9297V86.3267L86.3267 65ZM81.7305 65H77.1353L65 77.1353V81.7305L81.7305 65ZM67.9439 65H72.5391L65 72.5391V67.9439L67.9439 65Z" fill="#F0F0F0"/>
<rect y="130" width="65" height="65" transform="rotate(-90 0 130)" fill="#F0F0F0"/>
<path d="M-3.17812e-05 130C-3.17812e-05 121.464 1.68124 113.012 4.9478 105.126C8.21436 97.2394 13.0022 90.0739 19.038 84.0381C25.0738 78.0023 32.2394 73.2144 40.1256 69.9478C48.0117 66.6813 56.4641 65 65 65L65 130H-3.17812e-05Z" fill="#1E1E1E"/>
</svg>
