<svg width="130" height="130" viewBox="0 0 130 130" fill="none" xmlns="http://www.w3.org/2000/svg">
<rect width="65" height="65" transform="matrix(0 1 1 0 65 1)" fill="#1E1E1E"/>
<rect x="65" y="130" width="65" height="65" transform="rotate(-180 65 130)" fill="#1E1E1E"/>
<circle cx="24.375" cy="24.375" r="24.375" transform="matrix(0 1 1 0 8.125 73.125)" fill="white"/>
<rect width="65" height="65" transform="matrix(-1 0 0 1 65 0)" fill="#1E1E1E"/>
<circle cx="59.8063" cy="5.20156" r="0.975" transform="rotate(90 59.8063 5.20156)" fill="white"/>
<circle cx="59.8063" cy="12.0297" r="0.975" transform="rotate(90 59.8063 12.0297)" fill="white"/>
<circle cx="59.8063" cy="18.85" r="0.975" transform="rotate(90 59.8063 18.85)" fill="white"/>
<circle cx="59.8063" cy="25.6781" r="0.975" transform="rotate(90 59.8063 25.6781)" fill="white"/>
<circle cx="59.8063" cy="32.4984" r="0.975" transform="rotate(90 59.8063 32.4984)" fill="white"/>
<circle cx="59.8063" cy="39.3266" r="0.975" transform="rotate(90 59.8063 39.3266)" fill="white"/>
<circle cx="59.8063" cy="46.1547" r="0.975" transform="rotate(90 59.8063 46.1547)" fill="white"/>
<circle cx="59.8063" cy="52.975" r="0.975" transform="rotate(90 59.8063 52.975)" fill="white"/>
<circle cx="59.8063" cy="59.8031" r="0.975" transform="rotate(90 59.8063 59.8031)" fill="white"/>
<circle cx="52.9781" cy="5.20156" r="0.975" transform="rotate(90 52.9781 5.20156)" fill="white"/>
<circle cx="52.9781" cy="12.0297" r="0.975" transform="rotate(90 52.9781 12.0297)" fill="white"/>
<circle cx="52.9781" cy="18.85" r="0.975" transform="rotate(90 52.9781 18.85)" fill="white"/>
<circle cx="52.9781" cy="25.6781" r="0.975" transform="rotate(90 52.9781 25.6781)" fill="white"/>
<circle cx="52.9781" cy="32.4984" r="0.975" transform="rotate(90 52.9781 32.4984)" fill="white"/>
<circle cx="52.9781" cy="39.3266" r="0.975" transform="rotate(90 52.9781 39.3266)" fill="white"/>
<circle cx="52.9781" cy="46.1547" r="0.975" transform="rotate(90 52.9781 46.1547)" fill="white"/>
<circle cx="52.9781" cy="52.975" r="0.975" transform="rotate(90 52.9781 52.975)" fill="white"/>
<circle cx="52.9781" cy="59.8031" r="0.975" transform="rotate(90 52.9781 59.8031)" fill="white"/>
<circle cx="46.1578" cy="5.20156" r="0.975" transform="rotate(90 46.1578 5.20156)" fill="white"/>
<circle cx="46.1578" cy="12.0297" r="0.975" transform="rotate(90 46.1578 12.0297)" fill="white"/>
<circle cx="46.1578" cy="18.85" r="0.975" transform="rotate(90 46.1578 18.85)" fill="white"/>
<circle cx="46.1578" cy="25.6781" r="0.975" transform="rotate(90 46.1578 25.6781)" fill="white"/>
<circle cx="46.1578" cy="32.4984" r="0.975" transform="rotate(90 46.1578 32.4984)" fill="white"/>
<circle cx="46.1578" cy="39.3266" r="0.975" transform="rotate(90 46.1578 39.3266)" fill="white"/>
<circle cx="46.1578" cy="46.1547" r="0.975" transform="rotate(90 46.1578 46.1547)" fill="white"/>
<circle cx="46.1578" cy="52.975" r="0.975" transform="rotate(90 46.1578 52.975)" fill="white"/>
<circle cx="46.1578" cy="59.8031" r="0.975" transform="rotate(90 46.1578 59.8031)" fill="white"/>
<circle cx="39.3297" cy="5.20156" r="0.975" transform="rotate(90 39.3297 5.20156)" fill="white"/>
<circle cx="39.3297" cy="12.0297" r="0.975" transform="rotate(90 39.3297 12.0297)" fill="white"/>
<circle cx="39.3297" cy="18.85" r="0.975" transform="rotate(90 39.3297 18.85)" fill="white"/>
<circle cx="39.3297" cy="25.6781" r="0.975" transform="rotate(90 39.3297 25.6781)" fill="white"/>
<circle cx="39.3297" cy="32.4984" r="0.975" transform="rotate(90 39.3297 32.4984)" fill="white"/>
<circle cx="39.3297" cy="39.3266" r="0.975" transform="rotate(90 39.3297 39.3266)" fill="white"/>
<circle cx="39.3297" cy="46.1547" r="0.975" transform="rotate(90 39.3297 46.1547)" fill="white"/>
<circle cx="39.3297" cy="52.975" r="0.975" transform="rotate(90 39.3297 52.975)" fill="white"/>
<circle cx="39.3297" cy="59.8031" r="0.975" transform="rotate(90 39.3297 59.8031)" fill="white"/>
<circle cx="32.5094" cy="5.20156" r="0.975" transform="rotate(90 32.5094 5.20156)" fill="white"/>
<circle cx="32.5094" cy="12.0297" r="0.975" transform="rotate(90 32.5094 12.0297)" fill="white"/>
<circle cx="32.5094" cy="18.85" r="0.975" transform="rotate(90 32.5094 18.85)" fill="white"/>
<circle cx="32.5094" cy="25.6781" r="0.975" transform="rotate(90 32.5094 25.6781)" fill="white"/>
<circle cx="32.5094" cy="32.4984" r="0.975" transform="rotate(90 32.5094 32.4984)" fill="white"/>
<circle cx="32.5094" cy="39.3266" r="0.975" transform="rotate(90 32.5094 39.3266)" fill="white"/>
<circle cx="32.5094" cy="46.1547" r="0.975" transform="rotate(90 32.5094 46.1547)" fill="white"/>
<circle cx="32.5094" cy="52.975" r="0.975" transform="rotate(90 32.5094 52.975)" fill="white"/>
<circle cx="32.5094" cy="59.8031" r="0.975" transform="rotate(90 32.5094 59.8031)" fill="white"/>
<circle cx="25.6812" cy="5.20156" r="0.975" transform="rotate(90 25.6812 5.20156)" fill="white"/>
<circle cx="25.6812" cy="12.0297" r="0.975" transform="rotate(90 25.6812 12.0297)" fill="white"/>
<circle cx="25.6812" cy="18.85" r="0.975" transform="rotate(90 25.6812 18.85)" fill="white"/>
<circle cx="25.6812" cy="25.6781" r="0.975" transform="rotate(90 25.6812 25.6781)" fill="white"/>
<circle cx="25.6812" cy="32.4984" r="0.975" transform="rotate(90 25.6812 32.4984)" fill="white"/>
<circle cx="25.6812" cy="39.3266" r="0.975" transform="rotate(90 25.6812 39.3266)" fill="white"/>
<circle cx="25.6812" cy="46.1547" r="0.975" transform="rotate(90 25.6812 46.1547)" fill="white"/>
<circle cx="25.6812" cy="52.975" r="0.975" transform="rotate(90 25.6812 52.975)" fill="white"/>
<circle cx="25.6812" cy="59.8031" r="0.975" transform="rotate(90 25.6812 59.8031)" fill="white"/>
<circle cx="18.8531" cy="5.20156" r="0.975" transform="rotate(90 18.8531 5.20156)" fill="white"/>
<circle cx="18.8531" cy="12.0297" r="0.975" transform="rotate(90 18.8531 12.0297)" fill="white"/>
<circle cx="18.8531" cy="18.85" r="0.975" transform="rotate(90 18.8531 18.85)" fill="white"/>
<circle cx="18.8531" cy="25.6781" r="0.975" transform="rotate(90 18.8531 25.6781)" fill="white"/>
<circle cx="18.8531" cy="32.4984" r="0.975" transform="rotate(90 18.8531 32.4984)" fill="white"/>
<circle cx="18.8531" cy="39.3266" r="0.975" transform="rotate(90 18.8531 39.3266)" fill="white"/>
<circle cx="18.8531" cy="46.1547" r="0.975" transform="rotate(90 18.8531 46.1547)" fill="white"/>
<circle cx="18.8531" cy="52.975" r="0.975" transform="rotate(90 18.8531 52.975)" fill="white"/>
<circle cx="18.8531" cy="59.8031" r="0.975" transform="rotate(90 18.8531 59.8031)" fill="white"/>
<circle cx="12.0328" cy="5.20156" r="0.975" transform="rotate(90 12.0328 5.20156)" fill="white"/>
<circle cx="12.0328" cy="12.0297" r="0.975" transform="rotate(90 12.0328 12.0297)" fill="white"/>
<circle cx="12.0328" cy="18.85" r="0.975" transform="rotate(90 12.0328 18.85)" fill="white"/>
<circle cx="12.0328" cy="25.6781" r="0.975" transform="rotate(90 12.0328 25.6781)" fill="white"/>
<circle cx="12.0328" cy="32.4984" r="0.975" transform="rotate(90 12.0328 32.4984)" fill="white"/>
<circle cx="12.0328" cy="39.3266" r="0.975" transform="rotate(90 12.0328 39.3266)" fill="white"/>
<circle cx="12.0328" cy="46.1547" r="0.975" transform="rotate(90 12.0328 46.1547)" fill="white"/>
<circle cx="12.0328" cy="52.975" r="0.975" transform="rotate(90 12.0328 52.975)" fill="white"/>
<circle cx="12.0328" cy="59.8031" r="0.975" transform="rotate(90 12.0328 59.8031)" fill="white"/>
<circle cx="5.20469" cy="5.20156" r="0.975" transform="rotate(90 5.20469 5.20156)" fill="white"/>
<circle cx="5.20469" cy="12.0297" r="0.975" transform="rotate(90 5.20469 12.0297)" fill="white"/>
<circle cx="5.20469" cy="18.85" r="0.975" transform="rotate(90 5.20469 18.85)" fill="white"/>
<circle cx="5.20469" cy="25.6781" r="0.975" transform="rotate(90 5.20469 25.6781)" fill="white"/>
<circle cx="5.20469" cy="32.4984" r="0.975" transform="rotate(90 5.20469 32.4984)" fill="white"/>
<circle cx="5.20469" cy="39.3266" r="0.975" transform="rotate(90 5.20469 39.3266)" fill="white"/>
<circle cx="5.20469" cy="46.1547" r="0.975" transform="rotate(90 5.20469 46.1547)" fill="white"/>
<circle cx="5.20469" cy="52.975" r="0.975" transform="rotate(90 5.20469 52.975)" fill="white"/>
<circle cx="5.20469" cy="59.8031" r="0.975" transform="rotate(90 5.20469 59.8031)" fill="white"/>
<rect x="130" y="130" width="65" height="65" transform="rotate(-180 130 130)" fill="white"/>
<path d="M130 65H65L130 130V65Z" fill="#1E1E1E"/>
</svg>
